%TF.GenerationSoftware,KiCad,Pcbnew,(6.0.8)*%
%TF.CreationDate,2022-10-24T16:19:59-07:00*%
%TF.ProjectId,p_4,705f342e-6b69-4636-9164-5f7063625858,rev?*%
%TF.SameCoordinates,Original*%
%TF.FileFunction,Drillmap*%
%TF.FilePolarity,Positive*%
%FSLAX45Y45*%
G04 Gerber Fmt 4.5, Leading zero omitted, Abs format (unit mm)*
G04 Created by KiCad (PCBNEW (6.0.8)) date 2022-10-24 16:19:59*
%MOMM*%
%LPD*%
G01*
G04 APERTURE LIST*
%ADD10C,0.150000*%
%ADD11C,0.200000*%
%ADD12C,0.030000*%
%ADD13C,0.080000*%
%ADD14C,0.090000*%
%ADD15C,0.100000*%
G04 APERTURE END LIST*
D10*
X10508000Y-10000000D02*
X10508000Y-4666000D01*
X20160000Y-6190000D02*
X20160000Y-9619000D01*
X20160000Y-4920000D02*
X19906000Y-4666000D01*
X19829800Y-10000000D02*
X10508000Y-10000000D01*
X10508000Y-4666000D02*
X19652000Y-4666000D01*
X20160000Y-9619000D02*
X19906000Y-9873000D01*
X19829800Y-10000000D02*
G75*
G03*
X19906000Y-9923800I0J76200D01*
G01*
X19906000Y-4666000D02*
X19652000Y-4666000D01*
X20160000Y-4920000D02*
X20160000Y-5936000D01*
X19906000Y-9873000D02*
X19906000Y-9923800D01*
X20160000Y-6190000D02*
X20160000Y-5936000D01*
D11*
D12*
X19129000Y-6429000D02*
X19159000Y-6459000D01*
X19159000Y-6429000D02*
X19129000Y-6459000D01*
X19129000Y-7699000D02*
X19159000Y-7729000D01*
X19159000Y-7699000D02*
X19129000Y-7729000D01*
D13*
X12326000Y-8730000D02*
G75*
G03*
X12326000Y-8730000I-40000J0D01*
G01*
X12834000Y-5428000D02*
G75*
G03*
X12834000Y-5428000I-40000J0D01*
G01*
X12834000Y-6444000D02*
G75*
G03*
X12834000Y-6444000I-40000J0D01*
G01*
X13342000Y-5428000D02*
G75*
G03*
X13342000Y-5428000I-40000J0D01*
G01*
X13342000Y-6444000D02*
G75*
G03*
X13342000Y-6444000I-40000J0D01*
G01*
X13342000Y-8730000D02*
G75*
G03*
X13342000Y-8730000I-40000J0D01*
G01*
X14358000Y-5682000D02*
G75*
G03*
X14358000Y-5682000I-40000J0D01*
G01*
X15374000Y-5682000D02*
G75*
G03*
X15374000Y-5682000I-40000J0D01*
G01*
X15755000Y-5301000D02*
G75*
G03*
X15755000Y-5301000I-40000J0D01*
G01*
X15882000Y-9238000D02*
G75*
G03*
X15882000Y-9238000I-40000J0D01*
G01*
X16136000Y-5809000D02*
G75*
G03*
X16136000Y-5809000I-40000J0D01*
G01*
X16136000Y-8857000D02*
G75*
G03*
X16136000Y-8857000I-40000J0D01*
G01*
X16771000Y-5301000D02*
G75*
G03*
X16771000Y-5301000I-40000J0D01*
G01*
X16898000Y-9238000D02*
G75*
G03*
X16898000Y-9238000I-40000J0D01*
G01*
X17152000Y-5809000D02*
G75*
G03*
X17152000Y-5809000I-40000J0D01*
G01*
X17152000Y-8857000D02*
G75*
G03*
X17152000Y-8857000I-40000J0D01*
G01*
X17406000Y-5555000D02*
G75*
G03*
X17406000Y-5555000I-40000J0D01*
G01*
X17406000Y-8476000D02*
G75*
G03*
X17406000Y-8476000I-40000J0D01*
G01*
X17533000Y-9238000D02*
G75*
G03*
X17533000Y-9238000I-40000J0D01*
G01*
X18422000Y-5555000D02*
G75*
G03*
X18422000Y-5555000I-40000J0D01*
G01*
X18422000Y-8476000D02*
G75*
G03*
X18422000Y-8476000I-40000J0D01*
G01*
X18549000Y-9238000D02*
G75*
G03*
X18549000Y-9238000I-40000J0D01*
G01*
D14*
X12540000Y-6907000D02*
X12540000Y-6997000D01*
X12495000Y-6952000D02*
X12585000Y-6952000D01*
X12540000Y-7923000D02*
X12540000Y-8013000D01*
X12495000Y-7968000D02*
X12585000Y-7968000D01*
X12794000Y-6907000D02*
X12794000Y-6997000D01*
X12749000Y-6952000D02*
X12839000Y-6952000D01*
X12794000Y-7923000D02*
X12794000Y-8013000D01*
X12749000Y-7968000D02*
X12839000Y-7968000D01*
D15*
X11179356Y-7495356D02*
X11179356Y-7424644D01*
X11108644Y-7424644D01*
X11108644Y-7495356D01*
X11179356Y-7495356D01*
X11914956Y-4955356D02*
X11914956Y-4884644D01*
X11844244Y-4884644D01*
X11844244Y-4955356D01*
X11914956Y-4955356D01*
X11939356Y-7495356D02*
X11939356Y-7424644D01*
X11868644Y-7424644D01*
X11868644Y-7495356D01*
X11939356Y-7495356D01*
X12168956Y-4955356D02*
X12168956Y-4884644D01*
X12098244Y-4884644D01*
X12098244Y-4955356D01*
X12168956Y-4955356D01*
X12422956Y-4955356D02*
X12422956Y-4884644D01*
X12352244Y-4884644D01*
X12352244Y-4955356D01*
X12422956Y-4955356D01*
X12676956Y-4955356D02*
X12676956Y-4884644D01*
X12606244Y-4884644D01*
X12606244Y-4955356D01*
X12676956Y-4955356D01*
X12829356Y-9781356D02*
X12829356Y-9710644D01*
X12758644Y-9710644D01*
X12758644Y-9781356D01*
X12829356Y-9781356D01*
X12930956Y-4955356D02*
X12930956Y-4884644D01*
X12860244Y-4884644D01*
X12860244Y-4955356D01*
X12930956Y-4955356D01*
X13083356Y-9781356D02*
X13083356Y-9710644D01*
X13012644Y-9710644D01*
X13012644Y-9781356D01*
X13083356Y-9781356D01*
X13184956Y-4955356D02*
X13184956Y-4884644D01*
X13114244Y-4884644D01*
X13114244Y-4955356D01*
X13184956Y-4955356D01*
X13337356Y-9781356D02*
X13337356Y-9710644D01*
X13266644Y-9710644D01*
X13266644Y-9781356D01*
X13337356Y-9781356D01*
X13438956Y-4955356D02*
X13438956Y-4884644D01*
X13368244Y-4884644D01*
X13368244Y-4955356D01*
X13438956Y-4955356D01*
X13591356Y-9781356D02*
X13591356Y-9710644D01*
X13520644Y-9710644D01*
X13520644Y-9781356D01*
X13591356Y-9781356D01*
X13692956Y-4955356D02*
X13692956Y-4884644D01*
X13622244Y-4884644D01*
X13622244Y-4955356D01*
X13692956Y-4955356D01*
X13845356Y-9781356D02*
X13845356Y-9710644D01*
X13774644Y-9710644D01*
X13774644Y-9781356D01*
X13845356Y-9781356D01*
X13946956Y-4955356D02*
X13946956Y-4884644D01*
X13876244Y-4884644D01*
X13876244Y-4955356D01*
X13946956Y-4955356D01*
X14099356Y-9781356D02*
X14099356Y-9710644D01*
X14028644Y-9710644D01*
X14028644Y-9781356D01*
X14099356Y-9781356D01*
X14200956Y-4955356D02*
X14200956Y-4884644D01*
X14130244Y-4884644D01*
X14130244Y-4955356D01*
X14200956Y-4955356D01*
X14353356Y-9781356D02*
X14353356Y-9710644D01*
X14282644Y-9710644D01*
X14282644Y-9781356D01*
X14353356Y-9781356D01*
X14607356Y-4955356D02*
X14607356Y-4884644D01*
X14536644Y-4884644D01*
X14536644Y-4955356D01*
X14607356Y-4955356D01*
X14607356Y-9781356D02*
X14607356Y-9710644D01*
X14536644Y-9710644D01*
X14536644Y-9781356D01*
X14607356Y-9781356D01*
X14861356Y-4955356D02*
X14861356Y-4884644D01*
X14790644Y-4884644D01*
X14790644Y-4955356D01*
X14861356Y-4955356D01*
X15115356Y-4955356D02*
X15115356Y-4884644D01*
X15044644Y-4884644D01*
X15044644Y-4955356D01*
X15115356Y-4955356D01*
X15115356Y-9781356D02*
X15115356Y-9710644D01*
X15044644Y-9710644D01*
X15044644Y-9781356D01*
X15115356Y-9781356D01*
X15369356Y-4955356D02*
X15369356Y-4884644D01*
X15298644Y-4884644D01*
X15298644Y-4955356D01*
X15369356Y-4955356D01*
X15369356Y-9781356D02*
X15369356Y-9710644D01*
X15298644Y-9710644D01*
X15298644Y-9781356D01*
X15369356Y-9781356D01*
X15496356Y-6465106D02*
X15496356Y-6394394D01*
X15425644Y-6394394D01*
X15425644Y-6465106D01*
X15496356Y-6465106D01*
X15496356Y-7989106D02*
X15496356Y-7918394D01*
X15425644Y-7918394D01*
X15425644Y-7989106D01*
X15496356Y-7989106D01*
X15623356Y-4955356D02*
X15623356Y-4884644D01*
X15552644Y-4884644D01*
X15552644Y-4955356D01*
X15623356Y-4955356D01*
X15623356Y-9781356D02*
X15623356Y-9710644D01*
X15552644Y-9710644D01*
X15552644Y-9781356D01*
X15623356Y-9781356D01*
X15750356Y-6465106D02*
X15750356Y-6394394D01*
X15679644Y-6394394D01*
X15679644Y-6465106D01*
X15750356Y-6465106D01*
X15750356Y-7989106D02*
X15750356Y-7918394D01*
X15679644Y-7918394D01*
X15679644Y-7989106D01*
X15750356Y-7989106D01*
X15877356Y-4955356D02*
X15877356Y-4884644D01*
X15806644Y-4884644D01*
X15806644Y-4955356D01*
X15877356Y-4955356D01*
X15877356Y-9781356D02*
X15877356Y-9710644D01*
X15806644Y-9710644D01*
X15806644Y-9781356D01*
X15877356Y-9781356D01*
X16004356Y-6465106D02*
X16004356Y-6394394D01*
X15933644Y-6394394D01*
X15933644Y-6465106D01*
X16004356Y-6465106D01*
X16004356Y-7989106D02*
X16004356Y-7918394D01*
X15933644Y-7918394D01*
X15933644Y-7989106D01*
X16004356Y-7989106D01*
X16131356Y-4955356D02*
X16131356Y-4884644D01*
X16060644Y-4884644D01*
X16060644Y-4955356D01*
X16131356Y-4955356D01*
X16131356Y-9781356D02*
X16131356Y-9710644D01*
X16060644Y-9710644D01*
X16060644Y-9781356D01*
X16131356Y-9781356D01*
X16258356Y-6465106D02*
X16258356Y-6394394D01*
X16187644Y-6394394D01*
X16187644Y-6465106D01*
X16258356Y-6465106D01*
X16258356Y-7989106D02*
X16258356Y-7918394D01*
X16187644Y-7918394D01*
X16187644Y-7989106D01*
X16258356Y-7989106D01*
X16385356Y-4955356D02*
X16385356Y-4884644D01*
X16314644Y-4884644D01*
X16314644Y-4955356D01*
X16385356Y-4955356D01*
X16385356Y-9781356D02*
X16385356Y-9710644D01*
X16314644Y-9710644D01*
X16314644Y-9781356D01*
X16385356Y-9781356D01*
X16512356Y-6465106D02*
X16512356Y-6394394D01*
X16441644Y-6394394D01*
X16441644Y-6465106D01*
X16512356Y-6465106D01*
X16512356Y-7989106D02*
X16512356Y-7918394D01*
X16441644Y-7918394D01*
X16441644Y-7989106D01*
X16512356Y-7989106D01*
X16639356Y-9781356D02*
X16639356Y-9710644D01*
X16568644Y-9710644D01*
X16568644Y-9781356D01*
X16639356Y-9781356D01*
X16766356Y-6465106D02*
X16766356Y-6394394D01*
X16695644Y-6394394D01*
X16695644Y-6465106D01*
X16766356Y-6465106D01*
X16766356Y-7989106D02*
X16766356Y-7918394D01*
X16695644Y-7918394D01*
X16695644Y-7989106D01*
X16766356Y-7989106D01*
X16893356Y-4955356D02*
X16893356Y-4884644D01*
X16822644Y-4884644D01*
X16822644Y-4955356D01*
X16893356Y-4955356D01*
X16893356Y-9781356D02*
X16893356Y-9710644D01*
X16822644Y-9710644D01*
X16822644Y-9781356D01*
X16893356Y-9781356D01*
X17147356Y-4955356D02*
X17147356Y-4884644D01*
X17076644Y-4884644D01*
X17076644Y-4955356D01*
X17147356Y-4955356D01*
X17401356Y-4955356D02*
X17401356Y-4884644D01*
X17330644Y-4884644D01*
X17330644Y-4955356D01*
X17401356Y-4955356D01*
X17401356Y-9781356D02*
X17401356Y-9710644D01*
X17330644Y-9710644D01*
X17330644Y-9781356D01*
X17401356Y-9781356D01*
X17655356Y-4955356D02*
X17655356Y-4884644D01*
X17584644Y-4884644D01*
X17584644Y-4955356D01*
X17655356Y-4955356D01*
X17655356Y-9781356D02*
X17655356Y-9710644D01*
X17584644Y-9710644D01*
X17584644Y-9781356D01*
X17655356Y-9781356D01*
X17909356Y-4955356D02*
X17909356Y-4884644D01*
X17838644Y-4884644D01*
X17838644Y-4955356D01*
X17909356Y-4955356D01*
X17909356Y-9781356D02*
X17909356Y-9710644D01*
X17838644Y-9710644D01*
X17838644Y-9781356D01*
X17909356Y-9781356D01*
X18163356Y-4955356D02*
X18163356Y-4884644D01*
X18092644Y-4884644D01*
X18092644Y-4955356D01*
X18163356Y-4955356D01*
X18163356Y-9781356D02*
X18163356Y-9710644D01*
X18092644Y-9710644D01*
X18092644Y-9781356D01*
X18163356Y-9781356D01*
X18417356Y-4955356D02*
X18417356Y-4884644D01*
X18346644Y-4884644D01*
X18346644Y-4955356D01*
X18417356Y-4955356D01*
X18417356Y-9781356D02*
X18417356Y-9710644D01*
X18346644Y-9710644D01*
X18346644Y-9781356D01*
X18417356Y-9781356D01*
X18671356Y-4955356D02*
X18671356Y-4884644D01*
X18600644Y-4884644D01*
X18600644Y-4955356D01*
X18671356Y-4955356D01*
X18671356Y-9781356D02*
X18671356Y-9710644D01*
X18600644Y-9710644D01*
X18600644Y-9781356D01*
X18671356Y-9781356D01*
X18925356Y-9781356D02*
X18925356Y-9710644D01*
X18854644Y-9710644D01*
X18854644Y-9781356D01*
X18925356Y-9781356D01*
X19179356Y-9781356D02*
X19179356Y-9710644D01*
X19108644Y-9710644D01*
X19108644Y-9781356D01*
X19179356Y-9781356D01*
X19433356Y-4955356D02*
X19433356Y-4884644D01*
X19362644Y-4884644D01*
X19362644Y-4955356D01*
X19433356Y-4955356D01*
X19433356Y-5209356D02*
X19433356Y-5138644D01*
X19362644Y-5138644D01*
X19362644Y-5209356D01*
X19433356Y-5209356D01*
X19433356Y-5463356D02*
X19433356Y-5392644D01*
X19362644Y-5392644D01*
X19362644Y-5463356D01*
X19433356Y-5463356D01*
X19433356Y-5717356D02*
X19433356Y-5646644D01*
X19362644Y-5646644D01*
X19362644Y-5717356D01*
X19433356Y-5717356D01*
X19433356Y-5971356D02*
X19433356Y-5900644D01*
X19362644Y-5900644D01*
X19362644Y-5971356D01*
X19433356Y-5971356D01*
X19433356Y-6225356D02*
X19433356Y-6154644D01*
X19362644Y-6154644D01*
X19362644Y-6225356D01*
X19433356Y-6225356D01*
X19433356Y-6479356D02*
X19433356Y-6408644D01*
X19362644Y-6408644D01*
X19362644Y-6479356D01*
X19433356Y-6479356D01*
X19433356Y-6733356D02*
X19433356Y-6662644D01*
X19362644Y-6662644D01*
X19362644Y-6733356D01*
X19433356Y-6733356D01*
X19433356Y-6987356D02*
X19433356Y-6916644D01*
X19362644Y-6916644D01*
X19362644Y-6987356D01*
X19433356Y-6987356D01*
X19433356Y-7241356D02*
X19433356Y-7170644D01*
X19362644Y-7170644D01*
X19362644Y-7241356D01*
X19433356Y-7241356D01*
X19433356Y-7495356D02*
X19433356Y-7424644D01*
X19362644Y-7424644D01*
X19362644Y-7495356D01*
X19433356Y-7495356D01*
X19433356Y-7749356D02*
X19433356Y-7678644D01*
X19362644Y-7678644D01*
X19362644Y-7749356D01*
X19433356Y-7749356D01*
X19433356Y-8003356D02*
X19433356Y-7932644D01*
X19362644Y-7932644D01*
X19362644Y-8003356D01*
X19433356Y-8003356D01*
X19433356Y-8257356D02*
X19433356Y-8186644D01*
X19362644Y-8186644D01*
X19362644Y-8257356D01*
X19433356Y-8257356D01*
X19433356Y-8511356D02*
X19433356Y-8440644D01*
X19362644Y-8440644D01*
X19362644Y-8511356D01*
X19433356Y-8511356D01*
X19433356Y-8765356D02*
X19433356Y-8694644D01*
X19362644Y-8694644D01*
X19362644Y-8765356D01*
X19433356Y-8765356D01*
X19433356Y-9019356D02*
X19433356Y-8948644D01*
X19362644Y-8948644D01*
X19362644Y-9019356D01*
X19433356Y-9019356D01*
X19433356Y-9273356D02*
X19433356Y-9202644D01*
X19362644Y-9202644D01*
X19362644Y-9273356D01*
X19433356Y-9273356D01*
X19687356Y-4955356D02*
X19687356Y-4884644D01*
X19616644Y-4884644D01*
X19616644Y-4955356D01*
X19687356Y-4955356D01*
X19687356Y-5209356D02*
X19687356Y-5138644D01*
X19616644Y-5138644D01*
X19616644Y-5209356D01*
X19687356Y-5209356D01*
X19687356Y-5463356D02*
X19687356Y-5392644D01*
X19616644Y-5392644D01*
X19616644Y-5463356D01*
X19687356Y-5463356D01*
X19687356Y-5717356D02*
X19687356Y-5646644D01*
X19616644Y-5646644D01*
X19616644Y-5717356D01*
X19687356Y-5717356D01*
X19687356Y-5971356D02*
X19687356Y-5900644D01*
X19616644Y-5900644D01*
X19616644Y-5971356D01*
X19687356Y-5971356D01*
X19687356Y-6225356D02*
X19687356Y-6154644D01*
X19616644Y-6154644D01*
X19616644Y-6225356D01*
X19687356Y-6225356D01*
X19687356Y-6479356D02*
X19687356Y-6408644D01*
X19616644Y-6408644D01*
X19616644Y-6479356D01*
X19687356Y-6479356D01*
X19687356Y-6733356D02*
X19687356Y-6662644D01*
X19616644Y-6662644D01*
X19616644Y-6733356D01*
X19687356Y-6733356D01*
X19687356Y-6987356D02*
X19687356Y-6916644D01*
X19616644Y-6916644D01*
X19616644Y-6987356D01*
X19687356Y-6987356D01*
X19687356Y-7241356D02*
X19687356Y-7170644D01*
X19616644Y-7170644D01*
X19616644Y-7241356D01*
X19687356Y-7241356D01*
X19687356Y-7495356D02*
X19687356Y-7424644D01*
X19616644Y-7424644D01*
X19616644Y-7495356D01*
X19687356Y-7495356D01*
X19687356Y-7749356D02*
X19687356Y-7678644D01*
X19616644Y-7678644D01*
X19616644Y-7749356D01*
X19687356Y-7749356D01*
X19687356Y-8003356D02*
X19687356Y-7932644D01*
X19616644Y-7932644D01*
X19616644Y-8003356D01*
X19687356Y-8003356D01*
X19687356Y-8257356D02*
X19687356Y-8186644D01*
X19616644Y-8186644D01*
X19616644Y-8257356D01*
X19687356Y-8257356D01*
X19687356Y-8511356D02*
X19687356Y-8440644D01*
X19616644Y-8440644D01*
X19616644Y-8511356D01*
X19687356Y-8511356D01*
X19687356Y-8765356D02*
X19687356Y-8694644D01*
X19616644Y-8694644D01*
X19616644Y-8765356D01*
X19687356Y-8765356D01*
X19687356Y-9019356D02*
X19687356Y-8948644D01*
X19616644Y-8948644D01*
X19616644Y-9019356D01*
X19687356Y-9019356D01*
X19687356Y-9273356D02*
X19687356Y-9202644D01*
X19616644Y-9202644D01*
X19616644Y-9273356D01*
X19687356Y-9273356D01*
D11*
X10758119Y-10317976D02*
X10758119Y-10117976D01*
X10805738Y-10117976D01*
X10834310Y-10127500D01*
X10853357Y-10146548D01*
X10862881Y-10165595D01*
X10872405Y-10203690D01*
X10872405Y-10232262D01*
X10862881Y-10270357D01*
X10853357Y-10289405D01*
X10834310Y-10308452D01*
X10805738Y-10317976D01*
X10758119Y-10317976D01*
X10958119Y-10317976D02*
X10958119Y-10184643D01*
X10958119Y-10222738D02*
X10967643Y-10203690D01*
X10977167Y-10194167D01*
X10996214Y-10184643D01*
X11015262Y-10184643D01*
X11081929Y-10317976D02*
X11081929Y-10184643D01*
X11081929Y-10117976D02*
X11072405Y-10127500D01*
X11081929Y-10137024D01*
X11091452Y-10127500D01*
X11081929Y-10117976D01*
X11081929Y-10137024D01*
X11205738Y-10317976D02*
X11186690Y-10308452D01*
X11177167Y-10289405D01*
X11177167Y-10117976D01*
X11310500Y-10317976D02*
X11291452Y-10308452D01*
X11281928Y-10289405D01*
X11281928Y-10117976D01*
X11539071Y-10317976D02*
X11539071Y-10117976D01*
X11605738Y-10260833D01*
X11672405Y-10117976D01*
X11672405Y-10317976D01*
X11853357Y-10317976D02*
X11853357Y-10213214D01*
X11843833Y-10194167D01*
X11824786Y-10184643D01*
X11786690Y-10184643D01*
X11767643Y-10194167D01*
X11853357Y-10308452D02*
X11834309Y-10317976D01*
X11786690Y-10317976D01*
X11767643Y-10308452D01*
X11758119Y-10289405D01*
X11758119Y-10270357D01*
X11767643Y-10251310D01*
X11786690Y-10241786D01*
X11834309Y-10241786D01*
X11853357Y-10232262D01*
X11948595Y-10184643D02*
X11948595Y-10384643D01*
X11948595Y-10194167D02*
X11967643Y-10184643D01*
X12005738Y-10184643D01*
X12024786Y-10194167D01*
X12034309Y-10203690D01*
X12043833Y-10222738D01*
X12043833Y-10279881D01*
X12034309Y-10298929D01*
X12024786Y-10308452D01*
X12005738Y-10317976D01*
X11967643Y-10317976D01*
X11948595Y-10308452D01*
X12129548Y-10298929D02*
X12139071Y-10308452D01*
X12129548Y-10317976D01*
X12120024Y-10308452D01*
X12129548Y-10298929D01*
X12129548Y-10317976D01*
X12129548Y-10194167D02*
X12139071Y-10203690D01*
X12129548Y-10213214D01*
X12120024Y-10203690D01*
X12129548Y-10194167D01*
X12129548Y-10213214D01*
D12*
X10470500Y-10632500D02*
X10500500Y-10662500D01*
X10500500Y-10632500D02*
X10470500Y-10662500D01*
D11*
X10796214Y-10537976D02*
X10815262Y-10537976D01*
X10834310Y-10547500D01*
X10843833Y-10557024D01*
X10853357Y-10576071D01*
X10862881Y-10614167D01*
X10862881Y-10661786D01*
X10853357Y-10699881D01*
X10843833Y-10718929D01*
X10834310Y-10728452D01*
X10815262Y-10737976D01*
X10796214Y-10737976D01*
X10777167Y-10728452D01*
X10767643Y-10718929D01*
X10758119Y-10699881D01*
X10748595Y-10661786D01*
X10748595Y-10614167D01*
X10758119Y-10576071D01*
X10767643Y-10557024D01*
X10777167Y-10547500D01*
X10796214Y-10537976D01*
X10948595Y-10718929D02*
X10958119Y-10728452D01*
X10948595Y-10737976D01*
X10939071Y-10728452D01*
X10948595Y-10718929D01*
X10948595Y-10737976D01*
X11024786Y-10537976D02*
X11148595Y-10537976D01*
X11081929Y-10614167D01*
X11110500Y-10614167D01*
X11129548Y-10623690D01*
X11139071Y-10633214D01*
X11148595Y-10652262D01*
X11148595Y-10699881D01*
X11139071Y-10718929D01*
X11129548Y-10728452D01*
X11110500Y-10737976D01*
X11053357Y-10737976D01*
X11034310Y-10728452D01*
X11024786Y-10718929D01*
X11272405Y-10537976D02*
X11291452Y-10537976D01*
X11310500Y-10547500D01*
X11320024Y-10557024D01*
X11329548Y-10576071D01*
X11339071Y-10614167D01*
X11339071Y-10661786D01*
X11329548Y-10699881D01*
X11320024Y-10718929D01*
X11310500Y-10728452D01*
X11291452Y-10737976D01*
X11272405Y-10737976D01*
X11253357Y-10728452D01*
X11243833Y-10718929D01*
X11234309Y-10699881D01*
X11224786Y-10661786D01*
X11224786Y-10614167D01*
X11234309Y-10576071D01*
X11243833Y-10557024D01*
X11253357Y-10547500D01*
X11272405Y-10537976D01*
X11462881Y-10537976D02*
X11481928Y-10537976D01*
X11500976Y-10547500D01*
X11510500Y-10557024D01*
X11520024Y-10576071D01*
X11529548Y-10614167D01*
X11529548Y-10661786D01*
X11520024Y-10699881D01*
X11510500Y-10718929D01*
X11500976Y-10728452D01*
X11481928Y-10737976D01*
X11462881Y-10737976D01*
X11443833Y-10728452D01*
X11434309Y-10718929D01*
X11424786Y-10699881D01*
X11415262Y-10661786D01*
X11415262Y-10614167D01*
X11424786Y-10576071D01*
X11434309Y-10557024D01*
X11443833Y-10547500D01*
X11462881Y-10537976D01*
X11615262Y-10737976D02*
X11615262Y-10604643D01*
X11615262Y-10623690D02*
X11624786Y-10614167D01*
X11643833Y-10604643D01*
X11672405Y-10604643D01*
X11691452Y-10614167D01*
X11700976Y-10633214D01*
X11700976Y-10737976D01*
X11700976Y-10633214D02*
X11710500Y-10614167D01*
X11729548Y-10604643D01*
X11758119Y-10604643D01*
X11777167Y-10614167D01*
X11786690Y-10633214D01*
X11786690Y-10737976D01*
X11881928Y-10737976D02*
X11881928Y-10604643D01*
X11881928Y-10623690D02*
X11891452Y-10614167D01*
X11910500Y-10604643D01*
X11939071Y-10604643D01*
X11958119Y-10614167D01*
X11967643Y-10633214D01*
X11967643Y-10737976D01*
X11967643Y-10633214D02*
X11977167Y-10614167D01*
X11996214Y-10604643D01*
X12024786Y-10604643D01*
X12043833Y-10614167D01*
X12053357Y-10633214D01*
X12053357Y-10737976D01*
X12443833Y-10528452D02*
X12272405Y-10785595D01*
X12700976Y-10537976D02*
X12720024Y-10537976D01*
X12739071Y-10547500D01*
X12748595Y-10557024D01*
X12758119Y-10576071D01*
X12767643Y-10614167D01*
X12767643Y-10661786D01*
X12758119Y-10699881D01*
X12748595Y-10718929D01*
X12739071Y-10728452D01*
X12720024Y-10737976D01*
X12700976Y-10737976D01*
X12681928Y-10728452D01*
X12672405Y-10718929D01*
X12662881Y-10699881D01*
X12653357Y-10661786D01*
X12653357Y-10614167D01*
X12662881Y-10576071D01*
X12672405Y-10557024D01*
X12681928Y-10547500D01*
X12700976Y-10537976D01*
X12853357Y-10718929D02*
X12862881Y-10728452D01*
X12853357Y-10737976D01*
X12843833Y-10728452D01*
X12853357Y-10718929D01*
X12853357Y-10737976D01*
X12986690Y-10537976D02*
X13005738Y-10537976D01*
X13024786Y-10547500D01*
X13034309Y-10557024D01*
X13043833Y-10576071D01*
X13053357Y-10614167D01*
X13053357Y-10661786D01*
X13043833Y-10699881D01*
X13034309Y-10718929D01*
X13024786Y-10728452D01*
X13005738Y-10737976D01*
X12986690Y-10737976D01*
X12967643Y-10728452D01*
X12958119Y-10718929D01*
X12948595Y-10699881D01*
X12939071Y-10661786D01*
X12939071Y-10614167D01*
X12948595Y-10576071D01*
X12958119Y-10557024D01*
X12967643Y-10547500D01*
X12986690Y-10537976D01*
X13243833Y-10737976D02*
X13129548Y-10737976D01*
X13186690Y-10737976D02*
X13186690Y-10537976D01*
X13167643Y-10566548D01*
X13148595Y-10585595D01*
X13129548Y-10595119D01*
X13434309Y-10737976D02*
X13320024Y-10737976D01*
X13377167Y-10737976D02*
X13377167Y-10537976D01*
X13358119Y-10566548D01*
X13339071Y-10585595D01*
X13320024Y-10595119D01*
X13548595Y-10623690D02*
X13529548Y-10614167D01*
X13520024Y-10604643D01*
X13510500Y-10585595D01*
X13510500Y-10576071D01*
X13520024Y-10557024D01*
X13529548Y-10547500D01*
X13548595Y-10537976D01*
X13586690Y-10537976D01*
X13605738Y-10547500D01*
X13615262Y-10557024D01*
X13624786Y-10576071D01*
X13624786Y-10585595D01*
X13615262Y-10604643D01*
X13605738Y-10614167D01*
X13586690Y-10623690D01*
X13548595Y-10623690D01*
X13529548Y-10633214D01*
X13520024Y-10642738D01*
X13510500Y-10661786D01*
X13510500Y-10699881D01*
X13520024Y-10718929D01*
X13529548Y-10728452D01*
X13548595Y-10737976D01*
X13586690Y-10737976D01*
X13605738Y-10728452D01*
X13615262Y-10718929D01*
X13624786Y-10699881D01*
X13624786Y-10661786D01*
X13615262Y-10642738D01*
X13605738Y-10633214D01*
X13586690Y-10623690D01*
X13700976Y-10537976D02*
X13700976Y-10576071D01*
X13777167Y-10537976D02*
X13777167Y-10576071D01*
X14072405Y-10814167D02*
X14062881Y-10804643D01*
X14043833Y-10776071D01*
X14034309Y-10757024D01*
X14024786Y-10728452D01*
X14015262Y-10680833D01*
X14015262Y-10642738D01*
X14024786Y-10595119D01*
X14034309Y-10566548D01*
X14043833Y-10547500D01*
X14062881Y-10518929D01*
X14072405Y-10509405D01*
X14139071Y-10557024D02*
X14148595Y-10547500D01*
X14167643Y-10537976D01*
X14215262Y-10537976D01*
X14234309Y-10547500D01*
X14243833Y-10557024D01*
X14253357Y-10576071D01*
X14253357Y-10595119D01*
X14243833Y-10623690D01*
X14129548Y-10737976D01*
X14253357Y-10737976D01*
X14491452Y-10737976D02*
X14491452Y-10537976D01*
X14577167Y-10737976D02*
X14577167Y-10633214D01*
X14567643Y-10614167D01*
X14548595Y-10604643D01*
X14520024Y-10604643D01*
X14500976Y-10614167D01*
X14491452Y-10623690D01*
X14700976Y-10737976D02*
X14681928Y-10728452D01*
X14672405Y-10718929D01*
X14662881Y-10699881D01*
X14662881Y-10642738D01*
X14672405Y-10623690D01*
X14681928Y-10614167D01*
X14700976Y-10604643D01*
X14729548Y-10604643D01*
X14748595Y-10614167D01*
X14758119Y-10623690D01*
X14767643Y-10642738D01*
X14767643Y-10699881D01*
X14758119Y-10718929D01*
X14748595Y-10728452D01*
X14729548Y-10737976D01*
X14700976Y-10737976D01*
X14881928Y-10737976D02*
X14862881Y-10728452D01*
X14853357Y-10709405D01*
X14853357Y-10537976D01*
X15034309Y-10728452D02*
X15015262Y-10737976D01*
X14977167Y-10737976D01*
X14958119Y-10728452D01*
X14948595Y-10709405D01*
X14948595Y-10633214D01*
X14958119Y-10614167D01*
X14977167Y-10604643D01*
X15015262Y-10604643D01*
X15034309Y-10614167D01*
X15043833Y-10633214D01*
X15043833Y-10652262D01*
X14948595Y-10671310D01*
X15120024Y-10728452D02*
X15139071Y-10737976D01*
X15177167Y-10737976D01*
X15196214Y-10728452D01*
X15205738Y-10709405D01*
X15205738Y-10699881D01*
X15196214Y-10680833D01*
X15177167Y-10671310D01*
X15148595Y-10671310D01*
X15129548Y-10661786D01*
X15120024Y-10642738D01*
X15120024Y-10633214D01*
X15129548Y-10614167D01*
X15148595Y-10604643D01*
X15177167Y-10604643D01*
X15196214Y-10614167D01*
X15272405Y-10814167D02*
X15281928Y-10804643D01*
X15300976Y-10776071D01*
X15310500Y-10757024D01*
X15320024Y-10728452D01*
X15329548Y-10680833D01*
X15329548Y-10642738D01*
X15320024Y-10595119D01*
X15310500Y-10566548D01*
X15300976Y-10547500D01*
X15281928Y-10518929D01*
X15272405Y-10509405D01*
D13*
X10500500Y-10911500D02*
G75*
G03*
X10500500Y-10911500I-40000J0D01*
G01*
D11*
X10796214Y-10801976D02*
X10815262Y-10801976D01*
X10834310Y-10811500D01*
X10843833Y-10821024D01*
X10853357Y-10840071D01*
X10862881Y-10878167D01*
X10862881Y-10925786D01*
X10853357Y-10963881D01*
X10843833Y-10982929D01*
X10834310Y-10992452D01*
X10815262Y-11001976D01*
X10796214Y-11001976D01*
X10777167Y-10992452D01*
X10767643Y-10982929D01*
X10758119Y-10963881D01*
X10748595Y-10925786D01*
X10748595Y-10878167D01*
X10758119Y-10840071D01*
X10767643Y-10821024D01*
X10777167Y-10811500D01*
X10796214Y-10801976D01*
X10948595Y-10982929D02*
X10958119Y-10992452D01*
X10948595Y-11001976D01*
X10939071Y-10992452D01*
X10948595Y-10982929D01*
X10948595Y-11001976D01*
X11072405Y-10887690D02*
X11053357Y-10878167D01*
X11043833Y-10868643D01*
X11034310Y-10849595D01*
X11034310Y-10840071D01*
X11043833Y-10821024D01*
X11053357Y-10811500D01*
X11072405Y-10801976D01*
X11110500Y-10801976D01*
X11129548Y-10811500D01*
X11139071Y-10821024D01*
X11148595Y-10840071D01*
X11148595Y-10849595D01*
X11139071Y-10868643D01*
X11129548Y-10878167D01*
X11110500Y-10887690D01*
X11072405Y-10887690D01*
X11053357Y-10897214D01*
X11043833Y-10906738D01*
X11034310Y-10925786D01*
X11034310Y-10963881D01*
X11043833Y-10982929D01*
X11053357Y-10992452D01*
X11072405Y-11001976D01*
X11110500Y-11001976D01*
X11129548Y-10992452D01*
X11139071Y-10982929D01*
X11148595Y-10963881D01*
X11148595Y-10925786D01*
X11139071Y-10906738D01*
X11129548Y-10897214D01*
X11110500Y-10887690D01*
X11272405Y-10801976D02*
X11291452Y-10801976D01*
X11310500Y-10811500D01*
X11320024Y-10821024D01*
X11329548Y-10840071D01*
X11339071Y-10878167D01*
X11339071Y-10925786D01*
X11329548Y-10963881D01*
X11320024Y-10982929D01*
X11310500Y-10992452D01*
X11291452Y-11001976D01*
X11272405Y-11001976D01*
X11253357Y-10992452D01*
X11243833Y-10982929D01*
X11234309Y-10963881D01*
X11224786Y-10925786D01*
X11224786Y-10878167D01*
X11234309Y-10840071D01*
X11243833Y-10821024D01*
X11253357Y-10811500D01*
X11272405Y-10801976D01*
X11462881Y-10801976D02*
X11481928Y-10801976D01*
X11500976Y-10811500D01*
X11510500Y-10821024D01*
X11520024Y-10840071D01*
X11529548Y-10878167D01*
X11529548Y-10925786D01*
X11520024Y-10963881D01*
X11510500Y-10982929D01*
X11500976Y-10992452D01*
X11481928Y-11001976D01*
X11462881Y-11001976D01*
X11443833Y-10992452D01*
X11434309Y-10982929D01*
X11424786Y-10963881D01*
X11415262Y-10925786D01*
X11415262Y-10878167D01*
X11424786Y-10840071D01*
X11434309Y-10821024D01*
X11443833Y-10811500D01*
X11462881Y-10801976D01*
X11615262Y-11001976D02*
X11615262Y-10868643D01*
X11615262Y-10887690D02*
X11624786Y-10878167D01*
X11643833Y-10868643D01*
X11672405Y-10868643D01*
X11691452Y-10878167D01*
X11700976Y-10897214D01*
X11700976Y-11001976D01*
X11700976Y-10897214D02*
X11710500Y-10878167D01*
X11729548Y-10868643D01*
X11758119Y-10868643D01*
X11777167Y-10878167D01*
X11786690Y-10897214D01*
X11786690Y-11001976D01*
X11881928Y-11001976D02*
X11881928Y-10868643D01*
X11881928Y-10887690D02*
X11891452Y-10878167D01*
X11910500Y-10868643D01*
X11939071Y-10868643D01*
X11958119Y-10878167D01*
X11967643Y-10897214D01*
X11967643Y-11001976D01*
X11967643Y-10897214D02*
X11977167Y-10878167D01*
X11996214Y-10868643D01*
X12024786Y-10868643D01*
X12043833Y-10878167D01*
X12053357Y-10897214D01*
X12053357Y-11001976D01*
X12443833Y-10792452D02*
X12272405Y-11049595D01*
X12700976Y-10801976D02*
X12720024Y-10801976D01*
X12739071Y-10811500D01*
X12748595Y-10821024D01*
X12758119Y-10840071D01*
X12767643Y-10878167D01*
X12767643Y-10925786D01*
X12758119Y-10963881D01*
X12748595Y-10982929D01*
X12739071Y-10992452D01*
X12720024Y-11001976D01*
X12700976Y-11001976D01*
X12681928Y-10992452D01*
X12672405Y-10982929D01*
X12662881Y-10963881D01*
X12653357Y-10925786D01*
X12653357Y-10878167D01*
X12662881Y-10840071D01*
X12672405Y-10821024D01*
X12681928Y-10811500D01*
X12700976Y-10801976D01*
X12853357Y-10982929D02*
X12862881Y-10992452D01*
X12853357Y-11001976D01*
X12843833Y-10992452D01*
X12853357Y-10982929D01*
X12853357Y-11001976D01*
X12986690Y-10801976D02*
X13005738Y-10801976D01*
X13024786Y-10811500D01*
X13034309Y-10821024D01*
X13043833Y-10840071D01*
X13053357Y-10878167D01*
X13053357Y-10925786D01*
X13043833Y-10963881D01*
X13034309Y-10982929D01*
X13024786Y-10992452D01*
X13005738Y-11001976D01*
X12986690Y-11001976D01*
X12967643Y-10992452D01*
X12958119Y-10982929D01*
X12948595Y-10963881D01*
X12939071Y-10925786D01*
X12939071Y-10878167D01*
X12948595Y-10840071D01*
X12958119Y-10821024D01*
X12967643Y-10811500D01*
X12986690Y-10801976D01*
X13120024Y-10801976D02*
X13243833Y-10801976D01*
X13177167Y-10878167D01*
X13205738Y-10878167D01*
X13224786Y-10887690D01*
X13234309Y-10897214D01*
X13243833Y-10916262D01*
X13243833Y-10963881D01*
X13234309Y-10982929D01*
X13224786Y-10992452D01*
X13205738Y-11001976D01*
X13148595Y-11001976D01*
X13129548Y-10992452D01*
X13120024Y-10982929D01*
X13434309Y-11001976D02*
X13320024Y-11001976D01*
X13377167Y-11001976D02*
X13377167Y-10801976D01*
X13358119Y-10830548D01*
X13339071Y-10849595D01*
X13320024Y-10859119D01*
X13615262Y-10801976D02*
X13520024Y-10801976D01*
X13510500Y-10897214D01*
X13520024Y-10887690D01*
X13539071Y-10878167D01*
X13586690Y-10878167D01*
X13605738Y-10887690D01*
X13615262Y-10897214D01*
X13624786Y-10916262D01*
X13624786Y-10963881D01*
X13615262Y-10982929D01*
X13605738Y-10992452D01*
X13586690Y-11001976D01*
X13539071Y-11001976D01*
X13520024Y-10992452D01*
X13510500Y-10982929D01*
X13700976Y-10801976D02*
X13700976Y-10840071D01*
X13777167Y-10801976D02*
X13777167Y-10840071D01*
X14072405Y-11078167D02*
X14062881Y-11068643D01*
X14043833Y-11040071D01*
X14034309Y-11021024D01*
X14024786Y-10992452D01*
X14015262Y-10944833D01*
X14015262Y-10906738D01*
X14024786Y-10859119D01*
X14034309Y-10830548D01*
X14043833Y-10811500D01*
X14062881Y-10782929D01*
X14072405Y-10773405D01*
X14139071Y-10821024D02*
X14148595Y-10811500D01*
X14167643Y-10801976D01*
X14215262Y-10801976D01*
X14234309Y-10811500D01*
X14243833Y-10821024D01*
X14253357Y-10840071D01*
X14253357Y-10859119D01*
X14243833Y-10887690D01*
X14129548Y-11001976D01*
X14253357Y-11001976D01*
X14329548Y-10821024D02*
X14339071Y-10811500D01*
X14358119Y-10801976D01*
X14405738Y-10801976D01*
X14424786Y-10811500D01*
X14434309Y-10821024D01*
X14443833Y-10840071D01*
X14443833Y-10859119D01*
X14434309Y-10887690D01*
X14320024Y-11001976D01*
X14443833Y-11001976D01*
X14681928Y-11001976D02*
X14681928Y-10801976D01*
X14767643Y-11001976D02*
X14767643Y-10897214D01*
X14758119Y-10878167D01*
X14739071Y-10868643D01*
X14710500Y-10868643D01*
X14691452Y-10878167D01*
X14681928Y-10887690D01*
X14891452Y-11001976D02*
X14872405Y-10992452D01*
X14862881Y-10982929D01*
X14853357Y-10963881D01*
X14853357Y-10906738D01*
X14862881Y-10887690D01*
X14872405Y-10878167D01*
X14891452Y-10868643D01*
X14920024Y-10868643D01*
X14939071Y-10878167D01*
X14948595Y-10887690D01*
X14958119Y-10906738D01*
X14958119Y-10963881D01*
X14948595Y-10982929D01*
X14939071Y-10992452D01*
X14920024Y-11001976D01*
X14891452Y-11001976D01*
X15072405Y-11001976D02*
X15053357Y-10992452D01*
X15043833Y-10973405D01*
X15043833Y-10801976D01*
X15224786Y-10992452D02*
X15205738Y-11001976D01*
X15167643Y-11001976D01*
X15148595Y-10992452D01*
X15139071Y-10973405D01*
X15139071Y-10897214D01*
X15148595Y-10878167D01*
X15167643Y-10868643D01*
X15205738Y-10868643D01*
X15224786Y-10878167D01*
X15234309Y-10897214D01*
X15234309Y-10916262D01*
X15139071Y-10935310D01*
X15310500Y-10992452D02*
X15329548Y-11001976D01*
X15367643Y-11001976D01*
X15386690Y-10992452D01*
X15396214Y-10973405D01*
X15396214Y-10963881D01*
X15386690Y-10944833D01*
X15367643Y-10935310D01*
X15339071Y-10935310D01*
X15320024Y-10925786D01*
X15310500Y-10906738D01*
X15310500Y-10897214D01*
X15320024Y-10878167D01*
X15339071Y-10868643D01*
X15367643Y-10868643D01*
X15386690Y-10878167D01*
X15462881Y-11078167D02*
X15472405Y-11068643D01*
X15491452Y-11040071D01*
X15500976Y-11021024D01*
X15510500Y-10992452D01*
X15520024Y-10944833D01*
X15520024Y-10906738D01*
X15510500Y-10859119D01*
X15500976Y-10830548D01*
X15491452Y-10811500D01*
X15472405Y-10782929D01*
X15462881Y-10773405D01*
D14*
X10455500Y-11130500D02*
X10455500Y-11220500D01*
X10410500Y-11175500D02*
X10500500Y-11175500D01*
D11*
X10796214Y-11065976D02*
X10815262Y-11065976D01*
X10834310Y-11075500D01*
X10843833Y-11085024D01*
X10853357Y-11104071D01*
X10862881Y-11142167D01*
X10862881Y-11189786D01*
X10853357Y-11227881D01*
X10843833Y-11246928D01*
X10834310Y-11256452D01*
X10815262Y-11265976D01*
X10796214Y-11265976D01*
X10777167Y-11256452D01*
X10767643Y-11246928D01*
X10758119Y-11227881D01*
X10748595Y-11189786D01*
X10748595Y-11142167D01*
X10758119Y-11104071D01*
X10767643Y-11085024D01*
X10777167Y-11075500D01*
X10796214Y-11065976D01*
X10948595Y-11246928D02*
X10958119Y-11256452D01*
X10948595Y-11265976D01*
X10939071Y-11256452D01*
X10948595Y-11246928D01*
X10948595Y-11265976D01*
X11053357Y-11265976D02*
X11091452Y-11265976D01*
X11110500Y-11256452D01*
X11120024Y-11246928D01*
X11139071Y-11218357D01*
X11148595Y-11180262D01*
X11148595Y-11104071D01*
X11139071Y-11085024D01*
X11129548Y-11075500D01*
X11110500Y-11065976D01*
X11072405Y-11065976D01*
X11053357Y-11075500D01*
X11043833Y-11085024D01*
X11034310Y-11104071D01*
X11034310Y-11151690D01*
X11043833Y-11170738D01*
X11053357Y-11180262D01*
X11072405Y-11189786D01*
X11110500Y-11189786D01*
X11129548Y-11180262D01*
X11139071Y-11170738D01*
X11148595Y-11151690D01*
X11272405Y-11065976D02*
X11291452Y-11065976D01*
X11310500Y-11075500D01*
X11320024Y-11085024D01*
X11329548Y-11104071D01*
X11339071Y-11142167D01*
X11339071Y-11189786D01*
X11329548Y-11227881D01*
X11320024Y-11246928D01*
X11310500Y-11256452D01*
X11291452Y-11265976D01*
X11272405Y-11265976D01*
X11253357Y-11256452D01*
X11243833Y-11246928D01*
X11234309Y-11227881D01*
X11224786Y-11189786D01*
X11224786Y-11142167D01*
X11234309Y-11104071D01*
X11243833Y-11085024D01*
X11253357Y-11075500D01*
X11272405Y-11065976D01*
X11462881Y-11065976D02*
X11481928Y-11065976D01*
X11500976Y-11075500D01*
X11510500Y-11085024D01*
X11520024Y-11104071D01*
X11529548Y-11142167D01*
X11529548Y-11189786D01*
X11520024Y-11227881D01*
X11510500Y-11246928D01*
X11500976Y-11256452D01*
X11481928Y-11265976D01*
X11462881Y-11265976D01*
X11443833Y-11256452D01*
X11434309Y-11246928D01*
X11424786Y-11227881D01*
X11415262Y-11189786D01*
X11415262Y-11142167D01*
X11424786Y-11104071D01*
X11434309Y-11085024D01*
X11443833Y-11075500D01*
X11462881Y-11065976D01*
X11615262Y-11265976D02*
X11615262Y-11132643D01*
X11615262Y-11151690D02*
X11624786Y-11142167D01*
X11643833Y-11132643D01*
X11672405Y-11132643D01*
X11691452Y-11142167D01*
X11700976Y-11161214D01*
X11700976Y-11265976D01*
X11700976Y-11161214D02*
X11710500Y-11142167D01*
X11729548Y-11132643D01*
X11758119Y-11132643D01*
X11777167Y-11142167D01*
X11786690Y-11161214D01*
X11786690Y-11265976D01*
X11881928Y-11265976D02*
X11881928Y-11132643D01*
X11881928Y-11151690D02*
X11891452Y-11142167D01*
X11910500Y-11132643D01*
X11939071Y-11132643D01*
X11958119Y-11142167D01*
X11967643Y-11161214D01*
X11967643Y-11265976D01*
X11967643Y-11161214D02*
X11977167Y-11142167D01*
X11996214Y-11132643D01*
X12024786Y-11132643D01*
X12043833Y-11142167D01*
X12053357Y-11161214D01*
X12053357Y-11265976D01*
X12443833Y-11056452D02*
X12272405Y-11313595D01*
X12700976Y-11065976D02*
X12720024Y-11065976D01*
X12739071Y-11075500D01*
X12748595Y-11085024D01*
X12758119Y-11104071D01*
X12767643Y-11142167D01*
X12767643Y-11189786D01*
X12758119Y-11227881D01*
X12748595Y-11246928D01*
X12739071Y-11256452D01*
X12720024Y-11265976D01*
X12700976Y-11265976D01*
X12681928Y-11256452D01*
X12672405Y-11246928D01*
X12662881Y-11227881D01*
X12653357Y-11189786D01*
X12653357Y-11142167D01*
X12662881Y-11104071D01*
X12672405Y-11085024D01*
X12681928Y-11075500D01*
X12700976Y-11065976D01*
X12853357Y-11246928D02*
X12862881Y-11256452D01*
X12853357Y-11265976D01*
X12843833Y-11256452D01*
X12853357Y-11246928D01*
X12853357Y-11265976D01*
X12986690Y-11065976D02*
X13005738Y-11065976D01*
X13024786Y-11075500D01*
X13034309Y-11085024D01*
X13043833Y-11104071D01*
X13053357Y-11142167D01*
X13053357Y-11189786D01*
X13043833Y-11227881D01*
X13034309Y-11246928D01*
X13024786Y-11256452D01*
X13005738Y-11265976D01*
X12986690Y-11265976D01*
X12967643Y-11256452D01*
X12958119Y-11246928D01*
X12948595Y-11227881D01*
X12939071Y-11189786D01*
X12939071Y-11142167D01*
X12948595Y-11104071D01*
X12958119Y-11085024D01*
X12967643Y-11075500D01*
X12986690Y-11065976D01*
X13120024Y-11065976D02*
X13243833Y-11065976D01*
X13177167Y-11142167D01*
X13205738Y-11142167D01*
X13224786Y-11151690D01*
X13234309Y-11161214D01*
X13243833Y-11180262D01*
X13243833Y-11227881D01*
X13234309Y-11246928D01*
X13224786Y-11256452D01*
X13205738Y-11265976D01*
X13148595Y-11265976D01*
X13129548Y-11256452D01*
X13120024Y-11246928D01*
X13424786Y-11065976D02*
X13329548Y-11065976D01*
X13320024Y-11161214D01*
X13329548Y-11151690D01*
X13348595Y-11142167D01*
X13396214Y-11142167D01*
X13415262Y-11151690D01*
X13424786Y-11161214D01*
X13434309Y-11180262D01*
X13434309Y-11227881D01*
X13424786Y-11246928D01*
X13415262Y-11256452D01*
X13396214Y-11265976D01*
X13348595Y-11265976D01*
X13329548Y-11256452D01*
X13320024Y-11246928D01*
X13605738Y-11132643D02*
X13605738Y-11265976D01*
X13558119Y-11056452D02*
X13510500Y-11199309D01*
X13634309Y-11199309D01*
X13700976Y-11065976D02*
X13700976Y-11104071D01*
X13777167Y-11065976D02*
X13777167Y-11104071D01*
X14072405Y-11342167D02*
X14062881Y-11332643D01*
X14043833Y-11304071D01*
X14034309Y-11285024D01*
X14024786Y-11256452D01*
X14015262Y-11208833D01*
X14015262Y-11170738D01*
X14024786Y-11123119D01*
X14034309Y-11094548D01*
X14043833Y-11075500D01*
X14062881Y-11046929D01*
X14072405Y-11037405D01*
X14234309Y-11132643D02*
X14234309Y-11265976D01*
X14186690Y-11056452D02*
X14139071Y-11199309D01*
X14262881Y-11199309D01*
X14491452Y-11265976D02*
X14491452Y-11065976D01*
X14577167Y-11265976D02*
X14577167Y-11161214D01*
X14567643Y-11142167D01*
X14548595Y-11132643D01*
X14520024Y-11132643D01*
X14500976Y-11142167D01*
X14491452Y-11151690D01*
X14700976Y-11265976D02*
X14681928Y-11256452D01*
X14672405Y-11246928D01*
X14662881Y-11227881D01*
X14662881Y-11170738D01*
X14672405Y-11151690D01*
X14681928Y-11142167D01*
X14700976Y-11132643D01*
X14729548Y-11132643D01*
X14748595Y-11142167D01*
X14758119Y-11151690D01*
X14767643Y-11170738D01*
X14767643Y-11227881D01*
X14758119Y-11246928D01*
X14748595Y-11256452D01*
X14729548Y-11265976D01*
X14700976Y-11265976D01*
X14881928Y-11265976D02*
X14862881Y-11256452D01*
X14853357Y-11237405D01*
X14853357Y-11065976D01*
X15034309Y-11256452D02*
X15015262Y-11265976D01*
X14977167Y-11265976D01*
X14958119Y-11256452D01*
X14948595Y-11237405D01*
X14948595Y-11161214D01*
X14958119Y-11142167D01*
X14977167Y-11132643D01*
X15015262Y-11132643D01*
X15034309Y-11142167D01*
X15043833Y-11161214D01*
X15043833Y-11180262D01*
X14948595Y-11199309D01*
X15120024Y-11256452D02*
X15139071Y-11265976D01*
X15177167Y-11265976D01*
X15196214Y-11256452D01*
X15205738Y-11237405D01*
X15205738Y-11227881D01*
X15196214Y-11208833D01*
X15177167Y-11199309D01*
X15148595Y-11199309D01*
X15129548Y-11189786D01*
X15120024Y-11170738D01*
X15120024Y-11161214D01*
X15129548Y-11142167D01*
X15148595Y-11132643D01*
X15177167Y-11132643D01*
X15196214Y-11142167D01*
X15272405Y-11342167D02*
X15281928Y-11332643D01*
X15300976Y-11304071D01*
X15310500Y-11285024D01*
X15320024Y-11256452D01*
X15329548Y-11208833D01*
X15329548Y-11170738D01*
X15320024Y-11123119D01*
X15310500Y-11094548D01*
X15300976Y-11075500D01*
X15281928Y-11046929D01*
X15272405Y-11037405D01*
D15*
X10485856Y-11474856D02*
X10485856Y-11404144D01*
X10415144Y-11404144D01*
X10415144Y-11474856D01*
X10485856Y-11474856D01*
D11*
X10862881Y-11529976D02*
X10748595Y-11529976D01*
X10805738Y-11529976D02*
X10805738Y-11329976D01*
X10786690Y-11358548D01*
X10767643Y-11377595D01*
X10748595Y-11387119D01*
X10948595Y-11510928D02*
X10958119Y-11520452D01*
X10948595Y-11529976D01*
X10939071Y-11520452D01*
X10948595Y-11510928D01*
X10948595Y-11529976D01*
X11081929Y-11329976D02*
X11100976Y-11329976D01*
X11120024Y-11339500D01*
X11129548Y-11349024D01*
X11139071Y-11368071D01*
X11148595Y-11406167D01*
X11148595Y-11453786D01*
X11139071Y-11491881D01*
X11129548Y-11510928D01*
X11120024Y-11520452D01*
X11100976Y-11529976D01*
X11081929Y-11529976D01*
X11062881Y-11520452D01*
X11053357Y-11510928D01*
X11043833Y-11491881D01*
X11034310Y-11453786D01*
X11034310Y-11406167D01*
X11043833Y-11368071D01*
X11053357Y-11349024D01*
X11062881Y-11339500D01*
X11081929Y-11329976D01*
X11272405Y-11329976D02*
X11291452Y-11329976D01*
X11310500Y-11339500D01*
X11320024Y-11349024D01*
X11329548Y-11368071D01*
X11339071Y-11406167D01*
X11339071Y-11453786D01*
X11329548Y-11491881D01*
X11320024Y-11510928D01*
X11310500Y-11520452D01*
X11291452Y-11529976D01*
X11272405Y-11529976D01*
X11253357Y-11520452D01*
X11243833Y-11510928D01*
X11234309Y-11491881D01*
X11224786Y-11453786D01*
X11224786Y-11406167D01*
X11234309Y-11368071D01*
X11243833Y-11349024D01*
X11253357Y-11339500D01*
X11272405Y-11329976D01*
X11462881Y-11329976D02*
X11481928Y-11329976D01*
X11500976Y-11339500D01*
X11510500Y-11349024D01*
X11520024Y-11368071D01*
X11529548Y-11406167D01*
X11529548Y-11453786D01*
X11520024Y-11491881D01*
X11510500Y-11510928D01*
X11500976Y-11520452D01*
X11481928Y-11529976D01*
X11462881Y-11529976D01*
X11443833Y-11520452D01*
X11434309Y-11510928D01*
X11424786Y-11491881D01*
X11415262Y-11453786D01*
X11415262Y-11406167D01*
X11424786Y-11368071D01*
X11434309Y-11349024D01*
X11443833Y-11339500D01*
X11462881Y-11329976D01*
X11615262Y-11529976D02*
X11615262Y-11396643D01*
X11615262Y-11415690D02*
X11624786Y-11406167D01*
X11643833Y-11396643D01*
X11672405Y-11396643D01*
X11691452Y-11406167D01*
X11700976Y-11425214D01*
X11700976Y-11529976D01*
X11700976Y-11425214D02*
X11710500Y-11406167D01*
X11729548Y-11396643D01*
X11758119Y-11396643D01*
X11777167Y-11406167D01*
X11786690Y-11425214D01*
X11786690Y-11529976D01*
X11881928Y-11529976D02*
X11881928Y-11396643D01*
X11881928Y-11415690D02*
X11891452Y-11406167D01*
X11910500Y-11396643D01*
X11939071Y-11396643D01*
X11958119Y-11406167D01*
X11967643Y-11425214D01*
X11967643Y-11529976D01*
X11967643Y-11425214D02*
X11977167Y-11406167D01*
X11996214Y-11396643D01*
X12024786Y-11396643D01*
X12043833Y-11406167D01*
X12053357Y-11425214D01*
X12053357Y-11529976D01*
X12443833Y-11320452D02*
X12272405Y-11577595D01*
X12700976Y-11329976D02*
X12720024Y-11329976D01*
X12739071Y-11339500D01*
X12748595Y-11349024D01*
X12758119Y-11368071D01*
X12767643Y-11406167D01*
X12767643Y-11453786D01*
X12758119Y-11491881D01*
X12748595Y-11510928D01*
X12739071Y-11520452D01*
X12720024Y-11529976D01*
X12700976Y-11529976D01*
X12681928Y-11520452D01*
X12672405Y-11510928D01*
X12662881Y-11491881D01*
X12653357Y-11453786D01*
X12653357Y-11406167D01*
X12662881Y-11368071D01*
X12672405Y-11349024D01*
X12681928Y-11339500D01*
X12700976Y-11329976D01*
X12853357Y-11510928D02*
X12862881Y-11520452D01*
X12853357Y-11529976D01*
X12843833Y-11520452D01*
X12853357Y-11510928D01*
X12853357Y-11529976D01*
X12986690Y-11329976D02*
X13005738Y-11329976D01*
X13024786Y-11339500D01*
X13034309Y-11349024D01*
X13043833Y-11368071D01*
X13053357Y-11406167D01*
X13053357Y-11453786D01*
X13043833Y-11491881D01*
X13034309Y-11510928D01*
X13024786Y-11520452D01*
X13005738Y-11529976D01*
X12986690Y-11529976D01*
X12967643Y-11520452D01*
X12958119Y-11510928D01*
X12948595Y-11491881D01*
X12939071Y-11453786D01*
X12939071Y-11406167D01*
X12948595Y-11368071D01*
X12958119Y-11349024D01*
X12967643Y-11339500D01*
X12986690Y-11329976D01*
X13120024Y-11329976D02*
X13243833Y-11329976D01*
X13177167Y-11406167D01*
X13205738Y-11406167D01*
X13224786Y-11415690D01*
X13234309Y-11425214D01*
X13243833Y-11444262D01*
X13243833Y-11491881D01*
X13234309Y-11510928D01*
X13224786Y-11520452D01*
X13205738Y-11529976D01*
X13148595Y-11529976D01*
X13129548Y-11520452D01*
X13120024Y-11510928D01*
X13339071Y-11529976D02*
X13377167Y-11529976D01*
X13396214Y-11520452D01*
X13405738Y-11510928D01*
X13424786Y-11482357D01*
X13434309Y-11444262D01*
X13434309Y-11368071D01*
X13424786Y-11349024D01*
X13415262Y-11339500D01*
X13396214Y-11329976D01*
X13358119Y-11329976D01*
X13339071Y-11339500D01*
X13329548Y-11349024D01*
X13320024Y-11368071D01*
X13320024Y-11415690D01*
X13329548Y-11434738D01*
X13339071Y-11444262D01*
X13358119Y-11453786D01*
X13396214Y-11453786D01*
X13415262Y-11444262D01*
X13424786Y-11434738D01*
X13434309Y-11415690D01*
X13605738Y-11396643D02*
X13605738Y-11529976D01*
X13558119Y-11320452D02*
X13510500Y-11463309D01*
X13634309Y-11463309D01*
X13700976Y-11329976D02*
X13700976Y-11368071D01*
X13777167Y-11329976D02*
X13777167Y-11368071D01*
X14072405Y-11606167D02*
X14062881Y-11596643D01*
X14043833Y-11568071D01*
X14034309Y-11549024D01*
X14024786Y-11520452D01*
X14015262Y-11472833D01*
X14015262Y-11434738D01*
X14024786Y-11387119D01*
X14034309Y-11358548D01*
X14043833Y-11339500D01*
X14062881Y-11310928D01*
X14072405Y-11301405D01*
X14253357Y-11529976D02*
X14139071Y-11529976D01*
X14196214Y-11529976D02*
X14196214Y-11329976D01*
X14177167Y-11358548D01*
X14158119Y-11377595D01*
X14139071Y-11387119D01*
X14377167Y-11329976D02*
X14396214Y-11329976D01*
X14415262Y-11339500D01*
X14424786Y-11349024D01*
X14434309Y-11368071D01*
X14443833Y-11406167D01*
X14443833Y-11453786D01*
X14434309Y-11491881D01*
X14424786Y-11510928D01*
X14415262Y-11520452D01*
X14396214Y-11529976D01*
X14377167Y-11529976D01*
X14358119Y-11520452D01*
X14348595Y-11510928D01*
X14339071Y-11491881D01*
X14329548Y-11453786D01*
X14329548Y-11406167D01*
X14339071Y-11368071D01*
X14348595Y-11349024D01*
X14358119Y-11339500D01*
X14377167Y-11329976D01*
X14567643Y-11329976D02*
X14586690Y-11329976D01*
X14605738Y-11339500D01*
X14615262Y-11349024D01*
X14624786Y-11368071D01*
X14634309Y-11406167D01*
X14634309Y-11453786D01*
X14624786Y-11491881D01*
X14615262Y-11510928D01*
X14605738Y-11520452D01*
X14586690Y-11529976D01*
X14567643Y-11529976D01*
X14548595Y-11520452D01*
X14539071Y-11510928D01*
X14529548Y-11491881D01*
X14520024Y-11453786D01*
X14520024Y-11406167D01*
X14529548Y-11368071D01*
X14539071Y-11349024D01*
X14548595Y-11339500D01*
X14567643Y-11329976D01*
X14872405Y-11529976D02*
X14872405Y-11329976D01*
X14958119Y-11529976D02*
X14958119Y-11425214D01*
X14948595Y-11406167D01*
X14929548Y-11396643D01*
X14900976Y-11396643D01*
X14881928Y-11406167D01*
X14872405Y-11415690D01*
X15081928Y-11529976D02*
X15062881Y-11520452D01*
X15053357Y-11510928D01*
X15043833Y-11491881D01*
X15043833Y-11434738D01*
X15053357Y-11415690D01*
X15062881Y-11406167D01*
X15081928Y-11396643D01*
X15110500Y-11396643D01*
X15129548Y-11406167D01*
X15139071Y-11415690D01*
X15148595Y-11434738D01*
X15148595Y-11491881D01*
X15139071Y-11510928D01*
X15129548Y-11520452D01*
X15110500Y-11529976D01*
X15081928Y-11529976D01*
X15262881Y-11529976D02*
X15243833Y-11520452D01*
X15234309Y-11501405D01*
X15234309Y-11329976D01*
X15415262Y-11520452D02*
X15396214Y-11529976D01*
X15358119Y-11529976D01*
X15339071Y-11520452D01*
X15329548Y-11501405D01*
X15329548Y-11425214D01*
X15339071Y-11406167D01*
X15358119Y-11396643D01*
X15396214Y-11396643D01*
X15415262Y-11406167D01*
X15424786Y-11425214D01*
X15424786Y-11444262D01*
X15329548Y-11463309D01*
X15500976Y-11520452D02*
X15520024Y-11529976D01*
X15558119Y-11529976D01*
X15577167Y-11520452D01*
X15586690Y-11501405D01*
X15586690Y-11491881D01*
X15577167Y-11472833D01*
X15558119Y-11463309D01*
X15529548Y-11463309D01*
X15510500Y-11453786D01*
X15500976Y-11434738D01*
X15500976Y-11425214D01*
X15510500Y-11406167D01*
X15529548Y-11396643D01*
X15558119Y-11396643D01*
X15577167Y-11406167D01*
X15653357Y-11606167D02*
X15662881Y-11596643D01*
X15681928Y-11568071D01*
X15691452Y-11549024D01*
X15700976Y-11520452D01*
X15710500Y-11472833D01*
X15710500Y-11434738D01*
X15700976Y-11387119D01*
X15691452Y-11358548D01*
X15681928Y-11339500D01*
X15662881Y-11310928D01*
X15653357Y-11301405D01*
M02*
