G04 #@! TF.GenerationSoftware,KiCad,Pcbnew,(6.0.8)*
G04 #@! TF.CreationDate,2022-10-24T16:19:34-07:00*
G04 #@! TF.ProjectId,p_4,705f342e-6b69-4636-9164-5f7063625858,rev?*
G04 #@! TF.SameCoordinates,Original*
G04 #@! TF.FileFunction,Soldermask,Top*
G04 #@! TF.FilePolarity,Negative*
%FSLAX46Y46*%
G04 Gerber Fmt 4.6, Leading zero omitted, Abs format (unit mm)*
G04 Created by KiCad (PCBNEW (6.0.8)) date 2022-10-24 16:19:34*
%MOMM*%
%LPD*%
G01*
G04 APERTURE LIST*
%ADD10R,1.700000X1.700000*%
%ADD11O,1.700000X1.700000*%
%ADD12C,1.600000*%
%ADD13O,1.600000X1.600000*%
%ADD14R,1.800000X1.800000*%
%ADD15C,1.800000*%
%ADD16C,3.200000*%
%ADD17R,1.500000X1.500000*%
%ADD18C,1.500000*%
%ADD19R,2.000000X2.000000*%
%ADD20C,2.000000*%
G04 APERTURE END LIST*
D10*
X193980000Y-92380000D03*
D11*
X196520000Y-92380000D03*
X193980000Y-89840000D03*
X196520000Y-89840000D03*
X193980000Y-87300000D03*
X196520000Y-87300000D03*
X193980000Y-84760000D03*
X196520000Y-84760000D03*
X193980000Y-82220000D03*
X196520000Y-82220000D03*
X193980000Y-79680000D03*
X196520000Y-79680000D03*
X193980000Y-77140000D03*
X196520000Y-77140000D03*
X193980000Y-74600000D03*
X196520000Y-74600000D03*
X193980000Y-72060000D03*
X196520000Y-72060000D03*
X193980000Y-69520000D03*
X196520000Y-69520000D03*
X193980000Y-66980000D03*
X196520000Y-66980000D03*
X193980000Y-64440000D03*
X196520000Y-64440000D03*
X193980000Y-61900000D03*
X196520000Y-61900000D03*
X193980000Y-59360000D03*
X196520000Y-59360000D03*
X193980000Y-56820000D03*
X196520000Y-56820000D03*
X193980000Y-54280000D03*
X196520000Y-54280000D03*
X193980000Y-51740000D03*
X196520000Y-51740000D03*
X193980000Y-49200000D03*
X196520000Y-49200000D03*
D10*
X127940000Y-97460000D03*
D11*
X130480000Y-97460000D03*
X133020000Y-97460000D03*
X135560000Y-97460000D03*
X138100000Y-97460000D03*
X140640000Y-97460000D03*
X143180000Y-97460000D03*
X145720000Y-97460000D03*
D10*
X150800000Y-97460000D03*
D11*
X153340000Y-97460000D03*
X155880000Y-97460000D03*
X158420000Y-97460000D03*
X160960000Y-97460000D03*
X163500000Y-97460000D03*
X166040000Y-97460000D03*
X168580000Y-97460000D03*
D10*
X173660000Y-97460000D03*
D11*
X176200000Y-97460000D03*
X178740000Y-97460000D03*
X181280000Y-97460000D03*
X183820000Y-97460000D03*
X186360000Y-97460000D03*
X188900000Y-97460000D03*
X191440000Y-97460000D03*
D10*
X118796000Y-49200000D03*
D11*
X121336000Y-49200000D03*
X123876000Y-49200000D03*
X126416000Y-49200000D03*
X128956000Y-49200000D03*
X131496000Y-49200000D03*
X134036000Y-49200000D03*
X136576000Y-49200000D03*
X139116000Y-49200000D03*
X141656000Y-49200000D03*
D10*
X145720000Y-49200000D03*
D11*
X148260000Y-49200000D03*
X150800000Y-49200000D03*
X153340000Y-49200000D03*
X155880000Y-49200000D03*
X158420000Y-49200000D03*
X160960000Y-49200000D03*
X163500000Y-49200000D03*
D10*
X168580000Y-49200000D03*
D11*
X171120000Y-49200000D03*
X173660000Y-49200000D03*
X176200000Y-49200000D03*
X178740000Y-49200000D03*
X181280000Y-49200000D03*
X183820000Y-49200000D03*
X186360000Y-49200000D03*
D12*
X127940000Y-54280000D03*
D13*
X127940000Y-64440000D03*
D14*
X125400000Y-69520000D03*
D15*
X127940000Y-69520000D03*
D12*
X168580000Y-92380000D03*
D13*
X158420000Y-92380000D03*
D16*
X196520000Y-97460000D03*
D12*
X167310000Y-53010000D03*
D13*
X157150000Y-53010000D03*
D12*
X171120000Y-88570000D03*
D13*
X160960000Y-88570000D03*
D16*
X115240000Y-49200000D03*
D12*
X185090000Y-92380000D03*
D13*
X174930000Y-92380000D03*
D12*
X183820000Y-55550000D03*
D13*
X173660000Y-55550000D03*
D12*
X133020000Y-87300000D03*
D13*
X122860000Y-87300000D03*
D12*
X153340000Y-56820000D03*
D13*
X143180000Y-56820000D03*
D12*
X171120000Y-58090000D03*
D13*
X160960000Y-58090000D03*
D17*
X154610000Y-79537500D03*
D18*
X157150000Y-79537500D03*
X159690000Y-79537500D03*
X162230000Y-79537500D03*
X164770000Y-79537500D03*
X167310000Y-79537500D03*
X167310000Y-64297500D03*
X164770000Y-64297500D03*
X162230000Y-64297500D03*
X159690000Y-64297500D03*
X157150000Y-64297500D03*
X154610000Y-64297500D03*
D12*
X183820000Y-84760000D03*
D13*
X173660000Y-84760000D03*
D19*
X111440000Y-74600000D03*
D20*
X119040000Y-74600000D03*
D16*
X113970000Y-97460000D03*
D14*
X125400000Y-79680000D03*
D15*
X127940000Y-79680000D03*
D12*
X133020000Y-54280000D03*
D13*
X133020000Y-64440000D03*
D16*
X190170000Y-49200000D03*
M02*
