G04 #@! TF.GenerationSoftware,KiCad,Pcbnew,(6.0.8)*
G04 #@! TF.CreationDate,2022-10-24T16:19:34-07:00*
G04 #@! TF.ProjectId,p_4,705f342e-6b69-4636-9164-5f7063625858,rev?*
G04 #@! TF.SameCoordinates,Original*
G04 #@! TF.FileFunction,Copper,L1,Top*
G04 #@! TF.FilePolarity,Positive*
%FSLAX46Y46*%
G04 Gerber Fmt 4.6, Leading zero omitted, Abs format (unit mm)*
G04 Created by KiCad (PCBNEW (6.0.8)) date 2022-10-24 16:19:34*
%MOMM*%
%LPD*%
G01*
G04 APERTURE LIST*
G04 #@! TA.AperFunction,ComponentPad*
%ADD10R,1.700000X1.700000*%
G04 #@! TD*
G04 #@! TA.AperFunction,ComponentPad*
%ADD11O,1.700000X1.700000*%
G04 #@! TD*
G04 #@! TA.AperFunction,ComponentPad*
%ADD12C,1.600000*%
G04 #@! TD*
G04 #@! TA.AperFunction,ComponentPad*
%ADD13O,1.600000X1.600000*%
G04 #@! TD*
G04 #@! TA.AperFunction,ComponentPad*
%ADD14R,1.800000X1.800000*%
G04 #@! TD*
G04 #@! TA.AperFunction,ComponentPad*
%ADD15C,1.800000*%
G04 #@! TD*
G04 #@! TA.AperFunction,ComponentPad*
%ADD16R,1.500000X1.500000*%
G04 #@! TD*
G04 #@! TA.AperFunction,ComponentPad*
%ADD17C,1.500000*%
G04 #@! TD*
G04 #@! TA.AperFunction,ComponentPad*
%ADD18R,2.000000X2.000000*%
G04 #@! TD*
G04 #@! TA.AperFunction,ComponentPad*
%ADD19C,2.000000*%
G04 #@! TD*
G04 #@! TA.AperFunction,ViaPad*
%ADD20C,0.700000*%
G04 #@! TD*
G04 #@! TA.AperFunction,Conductor*
%ADD21C,0.250000*%
G04 #@! TD*
G04 APERTURE END LIST*
D10*
X193980000Y-92380000D03*
D11*
X196520000Y-92380000D03*
X193980000Y-89840000D03*
X196520000Y-89840000D03*
X193980000Y-87300000D03*
X196520000Y-87300000D03*
X193980000Y-84760000D03*
X196520000Y-84760000D03*
X193980000Y-82220000D03*
X196520000Y-82220000D03*
X193980000Y-79680000D03*
X196520000Y-79680000D03*
X193980000Y-77140000D03*
X196520000Y-77140000D03*
X193980000Y-74600000D03*
X196520000Y-74600000D03*
X193980000Y-72060000D03*
X196520000Y-72060000D03*
X193980000Y-69520000D03*
X196520000Y-69520000D03*
X193980000Y-66980000D03*
X196520000Y-66980000D03*
X193980000Y-64440000D03*
X196520000Y-64440000D03*
X193980000Y-61900000D03*
X196520000Y-61900000D03*
X193980000Y-59360000D03*
X196520000Y-59360000D03*
X193980000Y-56820000D03*
X196520000Y-56820000D03*
X193980000Y-54280000D03*
X196520000Y-54280000D03*
X193980000Y-51740000D03*
X196520000Y-51740000D03*
X193980000Y-49200000D03*
X196520000Y-49200000D03*
D10*
X127940000Y-97460000D03*
D11*
X130480000Y-97460000D03*
X133020000Y-97460000D03*
X135560000Y-97460000D03*
X138100000Y-97460000D03*
X140640000Y-97460000D03*
X143180000Y-97460000D03*
X145720000Y-97460000D03*
D10*
X150800000Y-97460000D03*
D11*
X153340000Y-97460000D03*
X155880000Y-97460000D03*
X158420000Y-97460000D03*
X160960000Y-97460000D03*
X163500000Y-97460000D03*
X166040000Y-97460000D03*
X168580000Y-97460000D03*
D10*
X173660000Y-97460000D03*
D11*
X176200000Y-97460000D03*
X178740000Y-97460000D03*
X181280000Y-97460000D03*
X183820000Y-97460000D03*
X186360000Y-97460000D03*
X188900000Y-97460000D03*
X191440000Y-97460000D03*
D10*
X118796000Y-49200000D03*
D11*
X121336000Y-49200000D03*
X123876000Y-49200000D03*
X126416000Y-49200000D03*
X128956000Y-49200000D03*
X131496000Y-49200000D03*
X134036000Y-49200000D03*
X136576000Y-49200000D03*
X139116000Y-49200000D03*
X141656000Y-49200000D03*
D10*
X145720000Y-49200000D03*
D11*
X148260000Y-49200000D03*
X150800000Y-49200000D03*
X153340000Y-49200000D03*
X155880000Y-49200000D03*
X158420000Y-49200000D03*
X160960000Y-49200000D03*
X163500000Y-49200000D03*
D10*
X168580000Y-49200000D03*
D11*
X171120000Y-49200000D03*
X173660000Y-49200000D03*
X176200000Y-49200000D03*
X178740000Y-49200000D03*
X181280000Y-49200000D03*
X183820000Y-49200000D03*
X186360000Y-49200000D03*
D12*
X127940000Y-54280000D03*
D13*
X127940000Y-64440000D03*
D14*
X125400000Y-69520000D03*
D15*
X127940000Y-69520000D03*
D12*
X168580000Y-92380000D03*
D13*
X158420000Y-92380000D03*
D12*
X167310000Y-53010000D03*
D13*
X157150000Y-53010000D03*
D12*
X171120000Y-88570000D03*
D13*
X160960000Y-88570000D03*
D12*
X185090000Y-92380000D03*
D13*
X174930000Y-92380000D03*
D12*
X183820000Y-55550000D03*
D13*
X173660000Y-55550000D03*
D12*
X133020000Y-87300000D03*
D13*
X122860000Y-87300000D03*
D12*
X153340000Y-56820000D03*
D13*
X143180000Y-56820000D03*
D12*
X171120000Y-58090000D03*
D13*
X160960000Y-58090000D03*
D16*
X154610000Y-79537500D03*
D17*
X157150000Y-79537500D03*
X159690000Y-79537500D03*
X162230000Y-79537500D03*
X164770000Y-79537500D03*
X167310000Y-79537500D03*
X167310000Y-64297500D03*
X164770000Y-64297500D03*
X162230000Y-64297500D03*
X159690000Y-64297500D03*
X157150000Y-64297500D03*
X154610000Y-64297500D03*
D12*
X183820000Y-84760000D03*
D13*
X173660000Y-84760000D03*
D18*
X111440000Y-74600000D03*
D19*
X119040000Y-74600000D03*
D14*
X125400000Y-79680000D03*
D15*
X127940000Y-79680000D03*
D12*
X133020000Y-54280000D03*
D13*
X133020000Y-64440000D03*
D20*
X191440000Y-64440000D03*
X191440000Y-77140000D03*
D21*
X125400000Y-77140000D02*
X122860000Y-74600000D01*
X122860000Y-74600000D02*
X119040000Y-74600000D01*
X125400000Y-69520000D02*
X125400000Y-72060000D01*
X125400000Y-50216000D02*
X126416000Y-49200000D01*
X125400000Y-72060000D02*
X122860000Y-74600000D01*
X125400000Y-79680000D02*
X125400000Y-77140000D01*
X125400000Y-69520000D02*
X125400000Y-50216000D01*
X191440000Y-66980000D02*
X193980000Y-69520000D01*
X164912500Y-66980000D02*
X191440000Y-66980000D01*
X162230000Y-64297500D02*
X164912500Y-66980000D01*
X161007500Y-70695000D02*
X195345000Y-70695000D01*
X195345000Y-70695000D02*
X196520000Y-69520000D01*
X154610000Y-64297500D02*
X161007500Y-70695000D01*
X167310000Y-79537500D02*
X173422500Y-73425000D01*
X195250000Y-68250000D02*
X193980000Y-66980000D01*
X197695000Y-70006701D02*
X197695000Y-69033299D01*
X194276701Y-73425000D02*
X195155000Y-72546701D01*
X173422500Y-73425000D02*
X194276701Y-73425000D01*
X196911701Y-68250000D02*
X195250000Y-68250000D01*
X196033299Y-70695000D02*
X197006701Y-70695000D01*
X197006701Y-70695000D02*
X197695000Y-70006701D01*
X195155000Y-71573299D02*
X196033299Y-70695000D01*
X197695000Y-69033299D02*
X196911701Y-68250000D01*
X195155000Y-72546701D02*
X195155000Y-71573299D01*
X166182500Y-65710000D02*
X195250000Y-65710000D01*
X195250000Y-65710000D02*
X196520000Y-66980000D01*
X164770000Y-64297500D02*
X166182500Y-65710000D01*
X191440000Y-82220000D02*
X191440000Y-77140000D01*
X191440000Y-61900000D02*
X193980000Y-59360000D01*
X188900000Y-84760000D02*
X191440000Y-82220000D01*
X191440000Y-64440000D02*
X191440000Y-61900000D01*
X183820000Y-84760000D02*
X188900000Y-84760000D01*
X195250000Y-74991701D02*
X194466701Y-75775000D01*
X195981395Y-65805000D02*
X197006701Y-65805000D01*
X195345000Y-60535000D02*
X195345000Y-65168605D01*
X194466701Y-75775000D02*
X190585991Y-75775000D01*
X198145000Y-66943299D02*
X198145000Y-72096701D01*
X196033299Y-73235000D02*
X195250000Y-74018299D01*
X177790991Y-88570000D02*
X171120000Y-88570000D01*
X198145000Y-72096701D02*
X197006701Y-73235000D01*
X197006701Y-65805000D02*
X198145000Y-66943299D01*
X196520000Y-59360000D02*
X195345000Y-60535000D01*
X195345000Y-65168605D02*
X195981395Y-65805000D01*
X195250000Y-74018299D02*
X195250000Y-74991701D01*
X197006701Y-73235000D02*
X196033299Y-73235000D01*
X190585991Y-75775000D02*
X177790991Y-88570000D01*
X197695000Y-60535000D02*
X197695000Y-56333299D01*
X195155000Y-55645000D02*
X193980000Y-56820000D01*
X199060000Y-93650000D02*
X186360000Y-93650000D01*
X199060000Y-61900000D02*
X197695000Y-60535000D01*
X197006701Y-55645000D02*
X195155000Y-55645000D01*
X199060000Y-61900000D02*
X199060000Y-93650000D01*
X186360000Y-93650000D02*
X185090000Y-92380000D01*
X197695000Y-56333299D02*
X197006701Y-55645000D01*
X171120000Y-58090000D02*
X195250000Y-58090000D01*
X195250000Y-58090000D02*
X196520000Y-56820000D01*
X154465000Y-51885000D02*
X164594009Y-51885000D01*
X164594009Y-51885000D02*
X166989009Y-54280000D01*
X166989009Y-54280000D02*
X193980000Y-54280000D01*
X153340000Y-53010000D02*
X153340000Y-56820000D01*
X154465000Y-51885000D02*
X153340000Y-53010000D01*
X177615000Y-91255000D02*
X169705000Y-91255000D01*
X198145000Y-55905000D02*
X198145000Y-59715000D01*
X181280000Y-94920000D02*
X177615000Y-91255000D01*
X196520000Y-54280000D02*
X198145000Y-55905000D01*
X169705000Y-91255000D02*
X168580000Y-92380000D01*
X200330000Y-61900000D02*
X200330000Y-94920000D01*
X198145000Y-59715000D02*
X200330000Y-61900000D01*
X200330000Y-94920000D02*
X181280000Y-94920000D01*
X192710000Y-53010000D02*
X193980000Y-51740000D01*
X167310000Y-53010000D02*
X192710000Y-53010000D01*
X194371701Y-55550000D02*
X195155000Y-54766701D01*
X196520000Y-52376396D02*
X196520000Y-51740000D01*
X195155000Y-53741396D02*
X196520000Y-52376396D01*
X195155000Y-54766701D02*
X195155000Y-53741396D01*
X183820000Y-55550000D02*
X194371701Y-55550000D01*
X172390000Y-94920000D02*
X174930000Y-92380000D01*
X157150000Y-94920000D02*
X172390000Y-94920000D01*
X157150000Y-94920000D02*
X154610000Y-92380000D01*
X154610000Y-92380000D02*
X154610000Y-79537500D01*
X157150000Y-79537500D02*
X157150000Y-91110000D01*
X157150000Y-91110000D02*
X158420000Y-92380000D01*
X159690000Y-87300000D02*
X160960000Y-88570000D01*
X159690000Y-79537500D02*
X159690000Y-87300000D01*
X162230000Y-79537500D02*
X162230000Y-78410000D01*
X144450000Y-56820000D02*
X152070000Y-64440000D01*
X152070000Y-68250000D02*
X152070000Y-64440000D01*
X143180000Y-56820000D02*
X144450000Y-56820000D01*
X162230000Y-78410000D02*
X152070000Y-68250000D01*
X164770000Y-79537500D02*
X169992500Y-84760000D01*
X169992500Y-84760000D02*
X173660000Y-84760000D01*
X167310000Y-64297500D02*
X167310000Y-60630000D01*
X173660000Y-55550000D02*
X169850000Y-55550000D01*
X168580000Y-59360000D02*
X168580000Y-56820000D01*
X167310000Y-60630000D02*
X168580000Y-59360000D01*
X168580000Y-56820000D02*
X169850000Y-55550000D01*
X159690000Y-59360000D02*
X160960000Y-58090000D01*
X159690000Y-64297500D02*
X159690000Y-59360000D01*
X157150000Y-64297500D02*
X157150000Y-53010000D01*
X134036000Y-51740000D02*
X130480000Y-51740000D01*
X130480000Y-51740000D02*
X127940000Y-54280000D01*
X136576000Y-49200000D02*
X134036000Y-51740000D01*
X139116000Y-49200000D02*
X134036000Y-54280000D01*
X134036000Y-54280000D02*
X133020000Y-54280000D01*
X141656000Y-78664000D02*
X141656000Y-49200000D01*
X133020000Y-87300000D02*
X141656000Y-78664000D01*
X111440000Y-78420000D02*
X120320000Y-87300000D01*
X111440000Y-74600000D02*
X111440000Y-78420000D01*
X120320000Y-87300000D02*
X122860000Y-87300000D01*
X127940000Y-69520000D02*
X127940000Y-64440000D01*
X127940000Y-79680000D02*
X133020000Y-74600000D01*
X133020000Y-64440000D02*
X133020000Y-74600000D01*
M02*
