M48
; DRILL file {KiCad (6.0.8)} date Mon Oct 24 16:19:57 2022
; FORMAT={-:-/ absolute / metric / decimal}
; #@! TF.CreationDate,2022-10-24T16:19:57-07:00
; #@! TF.GenerationSoftware,Kicad,Pcbnew,(6.0.8)
; #@! TF.FileFunction,Plated,1,2,PTH
FMAT,2
METRIC
; #@! TA.AperFunction,Plated,PTH,ViaDrill
T1C0.300
; #@! TA.AperFunction,Plated,PTH,ComponentDrill
T2C0.800
; #@! TA.AperFunction,Plated,PTH,ComponentDrill
T3C0.900
; #@! TA.AperFunction,Plated,PTH,ComponentDrill
T4C1.000
%
G90
G05
T1
X191.44Y-64.44
X191.44Y-77.14
T2
X122.86Y-87.3
X127.94Y-54.28
X127.94Y-64.44
X133.02Y-54.28
X133.02Y-64.44
X133.02Y-87.3
X143.18Y-56.82
X153.34Y-56.82
X157.15Y-53.01
X158.42Y-92.38
X160.96Y-58.09
X160.96Y-88.57
X167.31Y-53.01
X168.58Y-92.38
X171.12Y-58.09
X171.12Y-88.57
X173.66Y-55.55
X173.66Y-84.76
X174.93Y-92.38
X183.82Y-55.55
X183.82Y-84.76
X185.09Y-92.38
T3
X125.4Y-69.52
X125.4Y-79.68
X127.94Y-69.52
X127.94Y-79.68
T4
X111.44Y-74.6
X118.796Y-49.2
X119.04Y-74.6
X121.336Y-49.2
X123.876Y-49.2
X126.416Y-49.2
X127.94Y-97.46
X128.956Y-49.2
X130.48Y-97.46
X131.496Y-49.2
X133.02Y-97.46
X134.036Y-49.2
X135.56Y-97.46
X136.576Y-49.2
X138.1Y-97.46
X139.116Y-49.2
X140.64Y-97.46
X141.656Y-49.2
X143.18Y-97.46
X145.72Y-49.2
X145.72Y-97.46
X148.26Y-49.2
X150.8Y-49.2
X150.8Y-97.46
X153.34Y-49.2
X153.34Y-97.46
X154.61Y-64.297
X154.61Y-79.537
X155.88Y-49.2
X155.88Y-97.46
X157.15Y-64.297
X157.15Y-79.537
X158.42Y-49.2
X158.42Y-97.46
X159.69Y-64.297
X159.69Y-79.537
X160.96Y-49.2
X160.96Y-97.46
X162.23Y-64.297
X162.23Y-79.537
X163.5Y-49.2
X163.5Y-97.46
X164.77Y-64.297
X164.77Y-79.537
X166.04Y-97.46
X167.31Y-64.297
X167.31Y-79.537
X168.58Y-49.2
X168.58Y-97.46
X171.12Y-49.2
X173.66Y-49.2
X173.66Y-97.46
X176.2Y-49.2
X176.2Y-97.46
X178.74Y-49.2
X178.74Y-97.46
X181.28Y-49.2
X181.28Y-97.46
X183.82Y-49.2
X183.82Y-97.46
X186.36Y-49.2
X186.36Y-97.46
X188.9Y-97.46
X191.44Y-97.46
X193.98Y-49.2
X193.98Y-51.74
X193.98Y-54.28
X193.98Y-56.82
X193.98Y-59.36
X193.98Y-61.9
X193.98Y-64.44
X193.98Y-66.98
X193.98Y-69.52
X193.98Y-72.06
X193.98Y-74.6
X193.98Y-77.14
X193.98Y-79.68
X193.98Y-82.22
X193.98Y-84.76
X193.98Y-87.3
X193.98Y-89.84
X193.98Y-92.38
X196.52Y-49.2
X196.52Y-51.74
X196.52Y-54.28
X196.52Y-56.82
X196.52Y-59.36
X196.52Y-61.9
X196.52Y-64.44
X196.52Y-66.98
X196.52Y-69.52
X196.52Y-72.06
X196.52Y-74.6
X196.52Y-77.14
X196.52Y-79.68
X196.52Y-82.22
X196.52Y-84.76
X196.52Y-87.3
X196.52Y-89.84
X196.52Y-92.38
T0
M30
